<svg width="44" height="44" viewBox="0 0 44 44" fill="none" xmlns="http://www.w3.org/2000/svg">
<g clip-path="url(#clip0_110_436)">
<path d="M30.2608 7.26717C29.4577 3.48096 27.163 0.899498 26.1304 0.383225C23.807 -0.778413 23.0327 1.07159 22 1.07159C20.9674 1.07159 20.193 -0.778518 17.8696 0.383225C16.8371 0.899498 14.5424 3.48096 13.7392 7.26717C12.9361 11.0534 22 7.95553 22 7.95553C22 7.95553 31.0639 11.0534 30.2608 7.26717Z" fill="#FFD24F"/>
<path d="M22 18.5868C30.7443 18.5868 37.833 15.967 37.833 12.7354C37.833 9.50372 30.7443 6.88396 22 6.88396C13.2556 6.88396 6.16687 9.50372 6.16687 12.7354C6.16687 15.967 13.2556 18.5868 22 18.5868Z" fill="#FFBE1E"/>
<path d="M12.6841 16.9719C11.6522 16.7138 10.9762 17.2654 10.9762 18.3488C10.9762 19.7829 12.3639 23.2966 13.8228 21.1023C15.2816 18.908 12.6841 16.9719 12.6841 16.9719Z" fill="#FFE1B2"/>
<path d="M31.1405 16.9719C32.2669 16.7138 33.0048 17.2654 33.0048 18.3488C33.0048 19.7829 31.4901 23.2966 29.8977 21.1023C28.3052 18.908 31.1405 16.9719 31.1405 16.9719Z" fill="#FFE1B2"/>
<path d="M14.437 29.4895C15.9765 28.4983 15.8043 25.5481 15.8043 24.8598H28.1955C28.1955 25.5481 28.0046 28.4983 29.544 29.4895L21.9999 37.9393L14.437 29.4895Z" fill="#FFD7A3"/>
<path d="M26.8187 32.4322L29.544 29.4895C28.0045 28.4984 28.1955 25.5481 28.1955 24.8598H15.8043C16.6933 27.4158 22.5736 31.8012 26.8187 32.4322Z" fill="#FDC88E"/>
<path d="M37.833 44C38.9736 44 39.8982 43.0754 39.8982 41.9348V37.8331C39.8982 34.8041 37.5379 31.5705 34.6531 30.6474L30.3463 29.2694C28.0292 31.0411 24.7178 33.458 22 33.458C19.2821 33.458 15.9707 31.0411 13.6536 29.2694L9.34684 30.6474C6.462 31.5705 4.10168 34.8041 4.10168 37.8331V41.9348C4.10168 43.0754 5.02627 44 6.16688 44H37.833Z" fill="#FF6953"/>
<path d="M39.8533 42.3607H38.7847V40.9134H39.8982V39.8595H38.7847V38.4121H39.8982V37.833C39.8982 37.6752 39.8881 37.5167 39.8755 37.3583H38.7847V35.911H39.5942C39.4853 35.5535 39.3497 35.2012 39.1879 34.8571H38.7847V34.1022C38.4011 33.4635 37.9327 32.8723 37.4013 32.3559H36.2836V31.4467C35.7695 31.1042 35.2222 30.8295 34.6532 30.6473L32.1758 29.8546H31.2811V29.5682L30.3464 29.2691C30.3077 29.2988 30.2666 29.3298 30.2273 29.3597V29.8546H29.5717C28.9935 30.2862 28.3723 30.7328 27.726 31.1609V32.3558H26.2787V32.0522C25.0645 32.7359 23.8183 33.2592 22.6521 33.4096H22.7237V34.8569H21.2763V33.4096H21.3479C20.1817 33.2592 18.9354 32.7358 17.7212 32.0521V32.3557H16.2739V31.1608C15.6276 30.7327 15.0064 30.2861 14.4282 29.8545H13.7727V29.3596C13.7334 29.3297 13.6922 29.2986 13.6535 29.269L12.7188 29.5681V29.8545H11.8241L9.34674 30.6472C8.77774 30.8293 8.2304 31.104 7.71632 31.4466V32.3558H6.59873C6.06729 32.8722 5.59893 33.4632 5.21531 34.1021V34.857H4.81212C4.65039 35.2011 4.51481 35.5533 4.4058 35.9109H5.21531V37.3583H4.12439C4.11183 37.5167 4.10168 37.6752 4.10168 37.833V38.4121H5.2152V39.8595H4.10168V40.9134H5.2152V42.3607H4.14667C4.23266 42.7703 4.44074 43.1336 4.7301 43.4146H5.2152V43.7575C5.50122 43.9072 5.82165 44 6.16688 44H6.26919V43.4146H7.71653V44H8.77052V43.4146H10.2177V44H11.2715V43.4146H12.7189V44H13.7728V43.4146H15.2201V44H16.274V43.4146H17.7213V44H18.7753V43.4146H20.2227V44H21.2766V43.4146H22.7239V44H23.7778V43.4146H25.2251V44H26.279V43.4146H27.7263V44H28.7802V43.4146H30.2276V44H31.2815V43.4146H32.7288V44H33.7827V43.4146H35.23V44H36.284V43.4146H37.7313V44H37.8337C38.1789 44 38.4993 43.9072 38.7853 43.7575V43.4146H39.2704C39.5592 43.1336 39.7674 42.7703 39.8533 42.3607ZM7.71643 42.3607H6.26909V40.9134H7.71643V42.3607ZM7.71643 39.8596H6.26909V38.4122H7.71643V39.8596ZM7.71643 37.3584H6.26909V35.911H7.71643V37.3584ZM7.71643 34.8571H6.26909V33.4098H7.71643V34.8571ZM10.2177 42.3607H8.77031V40.9134H10.2177V42.3607ZM10.2177 39.8596H8.77031V38.4122H10.2177V39.8596ZM10.2177 37.3584H8.77031V35.911H10.2177V37.3584ZM10.2177 34.8571H8.77031V33.4098H10.2177V34.8571ZM10.2177 32.3559H8.77031V30.9086H10.2177V32.3559ZM12.7189 42.3607H11.2715V40.9134H12.7189V42.3607ZM12.7189 39.8596H11.2715V38.4122H12.7189V39.8596ZM12.7189 37.3584H11.2715V35.911H12.7189V37.3584ZM12.7189 34.8571H11.2715V33.4098H12.7189V34.8571ZM12.7189 32.3559H11.2715V30.9086H12.7189V32.3559ZM15.22 42.3607H13.7727V40.9134H15.22V42.3607ZM15.22 39.8596H13.7727V38.4122H15.22V39.8596ZM15.22 37.3584H13.7727V35.911H15.22V37.3584ZM15.22 34.8571H13.7727V33.4098H15.22V34.8571ZM15.22 32.3559H13.7727V30.9086H15.22V32.3559ZM17.7212 42.3607H16.2739V40.9134H17.7212V42.3607ZM17.7212 39.8596H16.2739V38.4122H17.7212V39.8596ZM17.7212 37.3584H16.2739V35.911H17.7212V37.3584ZM17.7212 34.8571H16.2739V33.4098H17.7212V34.8571ZM20.2225 42.3607H18.7751V40.9134H20.2225V42.3607ZM20.2225 39.8596H18.7751V38.4122H20.2225V39.8596ZM20.2225 37.3584H18.7751V35.911H20.2225V37.3584ZM20.2225 34.8571H18.7751V33.4098H20.2225V34.8571ZM22.7236 42.3607H21.2762V40.9134H22.7236V42.3607ZM22.7236 39.8596H21.2762V38.4122H22.7236V39.8596ZM22.7236 37.3584H21.2762V35.911H22.7236V37.3584ZM25.2248 42.3607H23.7775V40.9134H25.2248V42.3607ZM25.2248 39.8596H23.7775V38.4122H25.2248V39.8596ZM25.2248 37.3584H23.7775V35.911H25.2248V37.3584ZM25.2248 34.8571H23.7775V33.4098H25.2248V34.8571ZM27.726 42.3607H26.2787V40.9134H27.726V42.3607ZM27.726 39.8596H26.2787V38.4122H27.726V39.8596ZM27.726 37.3584H26.2787V35.911H27.726V37.3584ZM27.726 34.8571H26.2787V33.4098H27.726V34.8571ZM30.2273 42.3607H28.7799V40.9134H30.2273V42.3607ZM30.2273 39.8596H28.7799V38.4122H30.2273V39.8596ZM30.2273 37.3584H28.7799V35.911H30.2273V37.3584ZM30.2273 34.8571H28.7799V33.4098H30.2273V34.8571ZM30.2273 32.3559H28.7799V30.9086H30.2273V32.3559ZM32.7284 42.3607H31.281V40.9134H32.7284V42.3607ZM32.7284 39.8596H31.281V38.4122H32.7284V39.8596ZM32.7284 37.3584H31.281V35.911H32.7284V37.3584ZM32.7284 34.8571H31.281V33.4098H32.7284V34.8571ZM32.7284 32.3559H31.281V30.9086H32.7284V32.3559ZM35.2296 42.3607H33.7823V40.9134H35.2296V42.3607ZM35.2296 39.8596H33.7823V38.4122H35.2296V39.8596ZM35.2296 37.3584H33.7823V35.911H35.2296V37.3584ZM35.2296 34.8571H33.7823V33.4098H35.2296V34.8571ZM35.2296 32.3559H33.7823V30.9086H35.2296V32.3559ZM37.7308 42.3607H36.2835V40.9134H37.7308V42.3607ZM37.7308 39.8596H36.2835V38.4122H37.7308V39.8596ZM37.7308 37.3584H36.2835V35.911H37.7308V37.3584ZM37.7308 34.8571H36.2835V33.4098H37.7308V34.8571Z" fill="#E95F43"/>
<path d="M21.9999 33.4579L19.1276 36.3302C18.8285 36.6293 18.333 36.5904 18.0841 36.2483L13.0508 29.3274L14.6541 27.7241C14.913 27.4652 15.3293 27.4543 15.6014 27.6992L21.9999 33.4579Z" fill="#FFBE1E"/>
<path d="M22 33.4579L24.8723 36.3302C25.1714 36.6293 25.6669 36.5904 25.9158 36.2483L30.9491 29.3274L29.3458 27.7241C29.0869 27.4652 28.6706 27.4543 28.3985 27.6992L22 33.4579Z" fill="#FFBE1E"/>
<path d="M12.7917 12.317C12.6307 13.2909 12.6219 14.4618 12.6219 15.8533C12.6219 21.3661 15.7108 28.2445 22.0001 28.2445C28.2894 28.2445 31.3783 21.3661 31.3783 15.8533C31.3783 14.4617 31.3695 13.2909 31.2085 12.317C28.6855 11.4668 25.4852 10.957 22.0002 10.957C18.5152 10.957 15.3146 11.4667 12.7917 12.317Z" fill="#FFE1B2"/>
<path d="M31.4133 13.4306C30.8623 12.7235 30.2714 11.997 30.2714 11.997V12.6854C30.4421 18.9239 28.2222 21.6345 28.2222 21.6345L25.3936 21.9512C23.1877 22.1982 20.9615 22.1982 18.7556 21.9512L15.927 21.6345C15.927 21.6345 13.7071 18.9239 13.8779 12.6854V11.997C13.8779 11.997 13.2869 12.7234 12.7359 13.4306C12.5924 14.0446 12.3623 14.7122 12.3623 15.4449C12.3623 20.9576 15.6614 28.9057 22.0746 28.9057C28.4878 28.9057 31.6374 20.9576 31.6374 15.4449C31.6375 14.7122 31.557 14.0446 31.4133 13.4306ZM20.0254 23.2695H24.1238C24.6857 23.2695 25.1674 23.6119 25.3773 24.1006C24.6206 24.4324 23.4592 24.6462 22.15 24.6462C20.7678 24.6462 19.5529 24.4073 18.8029 24.0431C19.0253 23.5866 19.4867 23.2695 20.0254 23.2695Z" fill="#A7795E"/>
<path d="M22.3657 22.6571C22.3657 21.7481 21.4837 21.5423 20.9029 21.7626C19.838 22.1666 18.6656 23.2934 17.676 22.5965C17.676 22.5965 18.0202 24.051 18.6009 24.051C19.7626 24.0509 22.3657 24.2025 22.3657 22.6571Z" fill="#543D38"/>
<path d="M22.0873 22.6571C22.0873 21.7481 22.9693 21.5423 23.5501 21.7626C24.615 22.1666 25.7874 23.2934 26.7769 22.5965C26.7769 22.5965 26.4328 24.051 25.852 24.051C24.6904 24.0509 22.0873 24.2025 22.0873 22.6571Z" fill="#543D38"/>
<path d="M33.7028 30.2536L30.9492 29.3724V37.8429C30.9492 38.158 30.7401 38.4366 30.4342 38.5119C28.1039 39.0859 25.1809 39.4294 22.0001 39.4294C18.8193 39.4294 15.8962 39.0859 13.5659 38.5119C13.2599 38.4366 13.0509 38.158 13.0509 37.8429V29.3724L10.2974 30.2536V44H33.7029V30.2536H33.7028Z" fill="#C55F54"/>
<path d="M12.4085 17.0609L14.2674 17.4037C14.2674 17.4037 14.9934 13.3329 15.3825 11.6417C14.3673 11.8443 13.4097 12.0881 12.5368 12.3743C12.3713 13.3482 12.3623 14.5191 12.3623 15.9106C12.3624 16.2885 12.3787 16.673 12.4085 17.0609Z" fill="#543D38"/>
<path d="M31.5913 17.0609L29.7324 17.4037C29.7324 17.4037 29.0065 13.3329 28.6173 11.6417C29.6326 11.8443 30.5901 12.0881 31.463 12.3743C31.6285 13.3482 31.6375 14.5191 31.6375 15.9106C31.6375 16.2885 31.6211 16.673 31.5913 17.0609Z" fill="#543D38"/>
<path d="M26.0444 13.3234L27.6961 11.4432C25.9426 11.1331 24.022 10.957 22 10.957C20.7694 10.957 19.5771 11.0237 18.4348 11.1433C19.5146 11.0695 23.764 11.6417 26.0444 13.3234Z" fill="#543D38"/>
</g>
<defs>
<clipPath id="clip0_110_436">
<rect width="44" height="44" fill="white"/>
</clipPath>
</defs>
</svg>
